# xmcd
#
# Track frame offsets: 
#        183
#        14070
#        24655
#        38328
#        52543
#        64795
#        76668
#        89970
#        103030
#        114888
#        125680
#        137658
#        148760
#        163235
#        176028
#        188048
#        202740
#        213103
#
# Disc length: 3003 seconds
#
# Revision: 1
# Processed by: cddbd v1.5.2PL0 Copyright (c) Steve Scherf et al.
# Submitted via: ExactAudioCopy v0.99pb5
#
DISCID=f10bb912
DTITLE=Xavier Cugat and his orchestra - MAMBO !
DYEAR=1994
DGENRE=Swing
TTITLE0=Maracaibo
TTITLE1=Anything can happen-mambo
TTITLE2=Cerezo Rosa y Manzano Blanco
TTITLE3=Mambo O.K.
TTITLE4=Park Avenue Mambo
TTITLE5=Jamay
TTITLE6=Mambo gallego
TTITLE7=El Marijuano
TTITLE8=Mambo nº5
TTITLE9=Strangers in the dark
TTITLE10=Mambo ay ay ay
TTITLE11=Mondongo
TTITLE12=Mambo gitano
TTITLE13=Mambolette
TTITLE14=Carnival in Uruguay
TTITLE15=Que rico el mambo
TTITLE16=Uuuh!
TTITLE17=Mambo at the Waldorf
EXTD=
EXTT0=
EXTT1=
EXTT2=
EXTT3=
EXTT4=
EXTT5=
EXTT6=
EXTT7=
EXTT8=
EXTT9=
EXTT10=
EXTT11=
EXTT12=
EXTT13=
EXTT14=
EXTT15=
EXTT16=
EXTT17=
PLAYORDER=
